<svg width="24" height="26" viewBox="0 0 24 26" fill="none" xmlns="http://www.w3.org/2000/svg">
<circle cx="12" cy="13" r="11.5" stroke="white"/>
<path d="M12.7739 9.144C12.2512 9.144 11.7872 9.24 11.3819 9.432C10.9765 9.624 10.6299 9.90133 10.3419 10.264C10.0645 10.6267 9.85121 11.064 9.70188 11.576C9.56321 12.088 9.49388 12.664 9.49388 13.304C9.49388 14.168 9.61121 14.9093 9.84588 15.528C10.0805 16.136 10.4379 16.6053 10.9179 16.936C11.4085 17.2667 12.0219 17.432 12.7579 17.432C13.2485 17.432 13.7179 17.384 14.1659 17.288C14.6245 17.1813 15.1045 17.0427 15.6059 16.872V18.616C15.1365 18.808 14.6619 18.9467 14.1819 19.032C13.7125 19.1173 13.1685 19.16 12.5499 19.16C11.3765 19.16 10.4059 18.92 9.63788 18.44C8.86988 17.9493 8.29921 17.2667 7.92588 16.392C7.55254 15.5067 7.36588 14.472 7.36588 13.288C7.36588 12.424 7.48321 11.6347 7.71788 10.92C7.96321 10.2053 8.30988 9.58667 8.75788 9.064C9.21654 8.54133 9.78188 8.136 10.4539 7.848C11.1259 7.56 11.8992 7.416 12.7739 7.416C13.3499 7.416 13.9152 7.48533 14.4699 7.624C15.0352 7.752 15.5632 7.93333 16.0539 8.168L15.3499 9.848C14.9445 9.66667 14.5232 9.50667 14.0859 9.368C13.6592 9.21867 13.2219 9.144 12.7739 9.144Z" fill="white"/>
</svg>
