<svg width="36" height="36" viewBox="0 0 36 36" fill="none" xmlns="http://www.w3.org/2000/svg">
<path d="M17.9998 25.1109C21.9271 25.1109 25.1109 21.9271 25.1109 17.9998C25.1109 14.0724 21.9271 10.8887 17.9998 10.8887C14.0724 10.8887 10.8887 14.0724 10.8887 17.9998C10.8887 21.9271 14.0724 25.1109 17.9998 25.1109Z" stroke="white" stroke-width="3" stroke-linecap="round" stroke-linejoin="round"/>
<path d="M2 25.1111V10.8889C2 5.9797 5.9797 2 10.8889 2H25.1111C30.0203 2 34 5.9797 34 10.8889V25.1111C34 30.0203 30.0203 34 25.1111 34H10.8889C5.9797 34 2 30.0203 2 25.1111Z" stroke="white" stroke-width="3"/>
<path d="M27.7783 8.24063L27.7963 8.2207" stroke="white" stroke-width="3" stroke-linecap="round" stroke-linejoin="round"/>
</svg>
