<svg width="144" height="55" viewBox="0 0 144 55" fill="none" xmlns="http://www.w3.org/2000/svg">
<path d="M9.68688 1.01263C13.2989 1.01281 15.9588 1.85294 17.6668 3.53302C19.4027 5.18511 20.2706 7.46715 20.2704 10.3792C20.2703 11.6952 20.0883 12.9551 19.7242 14.1591C19.3602 15.3351 18.7581 16.3991 17.9181 17.351C17.078 18.275 15.958 19.0029 14.558 19.5349C13.1859 20.0668 11.4919 20.3327 9.47592 20.3326L7.12392 20.3325L7.12339 31.0005L0.319387 31.0002L0.320876 1.01216L9.68688 1.01263ZM9.47662 6.22062L7.12462 6.2205L7.12418 15.1245L8.84618 15.1246C9.74218 15.1246 10.5402 14.9707 11.2402 14.6627C11.9402 14.3547 12.4862 13.8648 12.8783 13.1928C13.2703 12.5208 13.4663 11.6528 13.4664 10.5888C13.4665 9.10482 13.1305 8.0128 12.4586 7.31277C11.8146 6.58473 10.8206 6.22068 9.47662 6.22062ZM27.2334 1.0135C29.7814 1.01362 31.8953 1.34973 33.5753 2.02181C35.2553 2.6659 36.5012 3.65996 37.3132 5.004C38.1531 6.32004 38.573 7.98606 38.5729 10.0021C38.5728 11.3741 38.3488 12.5781 37.9007 13.614C37.4807 14.622 36.8926 15.49 36.1366 16.2179C35.3806 16.9179 34.5265 17.4919 33.5745 17.9398L41.8059 31.0022L34.2039 31.0018L27.8624 19.4935L25.3004 19.4934L25.2999 31.0014L18.4959 31.0011L18.4974 1.01306L27.2334 1.0135ZM26.9391 6.22148L25.3011 6.2214L25.3007 14.3274L26.9807 14.3275C28.0167 14.3275 28.8847 14.1736 29.5847 13.8656C30.2847 13.5577 30.8168 13.0957 31.1808 12.4797C31.5448 11.8357 31.7269 11.0657 31.7269 10.1697C31.727 9.21772 31.559 8.46171 31.223 7.9017C30.887 7.31368 30.3691 6.89365 29.6691 6.64162C28.9691 6.36159 28.0591 6.22154 26.9391 6.22148ZM49.8669 31.0026L36.1329 31.0019L36.1331 27.3899L39.6192 25.7101L39.6201 6.30612L36.1342 4.62594L36.1344 1.01394L49.8684 1.01462L49.8682 4.62662L46.4241 6.30645L46.4232 25.7105L49.8671 27.3906L49.8669 31.0026Z" fill="#F26631"/>
<path d="M59.8491 31.0031L53.5923 7.48281L53.4243 7.4828C53.4523 8.0428 53.4942 8.8828 53.5502 10.0028C53.6061 11.1228 53.6621 12.3268 53.718 13.6148C53.7739 14.8748 53.8019 16.0228 53.8018 17.0588L53.8011 31.0028L47.7531 31.0025L47.7546 1.01452L56.9106 1.01497L63.1675 23.9473L63.2935 23.9473L69.7206 1.01561L78.8766 1.01606L78.8751 31.0041L72.5751 31.0038L72.5758 16.8077C72.5759 15.8558 72.5899 14.7638 72.618 13.5318C72.6461 12.2998 72.6881 11.1378 72.7442 10.0458C72.8002 8.92576 72.8423 8.08576 72.8703 7.52576L72.7023 7.52576L66.2331 31.0034L59.8491 31.0031ZM96.0705 31.0049L94.3489 23.8648L84.6469 23.8643L82.8825 31.0043L75.4905 31.0039L85.068 0.890371L93.804 0.890804L103.421 31.0053L96.0705 31.0049ZM90.9055 11.5587C90.7375 10.9707 90.5696 10.3546 90.4016 9.71063C90.2336 9.06663 90.0657 8.39462 89.8977 7.69461C89.7577 6.9946 89.6178 6.2806 89.4778 5.55259C89.3658 6.28058 89.2257 7.00858 89.0577 7.73657C88.8897 8.43656 88.7216 9.10855 88.5536 9.75254C88.4136 10.3965 88.2595 10.9985 88.0915 11.5585L86.1591 18.5304L92.8792 18.5308L90.9055 11.5587Z" fill="#C00202"/>
<path d="M55.5425 25.0149C58.1465 25.015 60.2885 25.2671 61.9684 25.7712C63.6484 26.2473 64.8944 27.0454 65.7063 28.1654C66.5183 29.2574 66.9242 30.7415 66.9241 32.6175C66.924 33.7375 66.728 34.7595 66.3359 35.6834C65.9439 36.6074 65.4119 37.3634 64.7398 37.9514C64.0958 38.5393 63.3678 38.9173 62.5558 39.0853L62.5558 39.2953C63.3958 39.4913 64.1937 39.8413 64.9497 40.3454C65.7337 40.8494 66.3636 41.5774 66.8396 42.5295C67.3156 43.4815 67.5535 44.7415 67.5534 46.3095C67.5533 48.1295 67.1192 49.6975 66.2512 51.0134C65.4111 52.3014 64.2071 53.2953 62.639 53.9953C61.071 54.6672 59.195 55.0031 57.011 55.003L46.259 55.0024L46.2605 25.0144L55.5425 25.0149ZM55.9199 36.9009C57.4319 36.901 58.4819 36.6071 59.0699 36.0191C59.658 35.4311 59.952 34.5771 59.9521 33.4571C59.9521 32.3091 59.6021 31.4831 58.9022 30.9791C58.2302 30.475 57.1662 30.223 55.7102 30.2229L53.0642 30.2228L53.0639 36.9008L55.9199 36.9009ZM53.0636 41.9408L53.0632 49.7528L56.3392 49.7529C57.9072 49.753 58.9993 49.3891 59.6153 48.6611C60.2313 47.9051 60.5394 46.9112 60.5394 45.6792C60.5395 44.9232 60.3995 44.2651 60.1195 43.7051C59.8676 43.1451 59.4196 42.7111 58.7756 42.4031C58.1596 42.095 57.2916 41.941 56.1716 41.9409L53.0636 41.9408ZM83.3791 55.0043L81.6575 47.8642L71.9555 47.8637L70.1911 55.0036L62.7991 55.0033L72.3766 24.8897L81.1126 24.8902L90.7291 55.0047L83.3791 55.0043ZM78.2141 35.558C78.0461 34.97 77.8781 34.354 77.7102 33.71C77.5422 33.066 77.3742 32.394 77.2063 31.694C77.0663 30.994 76.9263 30.28 76.7864 29.552C76.6743 30.28 76.5343 31.0079 76.3663 31.7359C76.1982 32.4359 76.0302 33.1079 75.8622 33.7519C75.7221 34.3959 75.5681 34.9979 75.4001 35.5579L73.4677 42.5298L80.1877 42.5301L78.2141 35.558Z" fill="#585858"/>
<path d="M96.0662 25.0169C98.6142 25.017 100.728 25.3531 102.408 26.0252C104.088 26.6693 105.334 27.6634 106.146 29.0074C106.986 30.3235 107.406 31.9895 107.406 34.0055C107.406 35.3775 107.182 36.5815 106.734 37.6174C106.314 38.6254 105.726 39.4934 104.969 40.2214C104.213 40.9213 103.359 41.4953 102.407 41.9432L110.639 55.0056L103.037 55.0053L96.6953 43.4969L94.1333 43.4968L94.1327 55.0048L87.3287 55.0045L87.3302 25.0165L96.0662 25.0169ZM95.772 30.2249L94.134 30.2248L94.1336 38.3308L95.8136 38.3309C96.8496 38.331 97.7176 38.177 98.4176 37.869C99.1176 37.5611 99.6496 37.0991 100.014 36.4831C100.378 35.8391 100.56 35.0691 100.56 34.1731C100.56 33.2211 100.392 32.4651 100.056 31.9051C99.7199 31.3171 99.2019 30.8971 98.502 30.645C97.802 30.365 96.892 30.225 95.772 30.2249ZM115.719 25.0179C118.267 25.018 120.381 25.3541 122.061 26.0262C123.741 26.6703 124.987 27.6644 125.799 29.0084C126.639 30.3244 127.059 31.9905 127.059 34.0065C127.059 35.3785 126.835 36.5824 126.387 37.6184C125.967 38.6264 125.379 39.4944 124.623 40.2223C123.866 40.9223 123.012 41.4963 122.06 41.9442L130.292 55.0066L122.69 55.0062L116.348 43.4979L113.786 43.4978L113.786 55.0058L106.982 55.0055L106.983 25.0175L115.719 25.0179ZM115.425 30.2259L113.787 30.2258L113.787 38.3318L115.467 38.3319C116.503 38.3319 117.371 38.178 118.071 37.87C118.771 37.562 119.303 37.1001 119.667 36.4841C120.031 35.8401 120.213 35.0701 120.213 34.1741C120.213 33.2221 120.045 32.4661 119.709 31.9061C119.373 31.3181 118.855 30.898 118.155 30.646C117.455 30.366 116.545 30.2259 115.425 30.2259ZM143.099 55.0073L126.635 55.0064L126.636 25.0184L143.1 25.0192L143.1 30.2272L133.44 30.2268L133.44 36.8208L142.428 36.8212L142.427 42.0292L133.439 42.0288L133.439 49.7568L143.099 49.7573L143.099 55.0073Z" fill="black" fill-opacity="0.5"/>
</svg>
