<svg width="36" height="26" viewBox="0 0 36 26" fill="none" xmlns="http://www.w3.org/2000/svg">
<path d="M21.2001 13.0002L15.6001 16.2002V9.80017L21.2001 13.0002Z" fill="white" stroke="white" stroke-width="3" stroke-linecap="round" stroke-linejoin="round"/>
<path d="M2 14.1321V11.8679C2 7.23533 2 4.91908 3.44878 3.42872C4.89758 1.93837 7.1785 1.87386 11.7403 1.74484C13.902 1.6837 16.1101 1.63989 18 1.63989C19.8899 1.63989 22.0981 1.6837 24.2597 1.74484C28.8214 1.87386 31.1024 1.93837 32.5512 3.42872C34 4.91908 34 7.23533 34 11.8679V14.1321C34 18.7645 34 21.0809 32.5512 22.5711C31.1024 24.0615 28.8216 24.126 24.2598 24.2551C22.0981 24.3162 19.8899 24.3601 18 24.3601C16.1101 24.3601 13.9019 24.3162 11.7402 24.2551C7.17842 24.126 4.89755 24.0615 3.44877 22.5711C2 21.0809 2 18.7645 2 14.1321Z" stroke="white" stroke-width="3"/>
</svg>
